<?xml version="1.0" encoding="UTF-8" standalone="no"?>
<!DOCTYPE svg PUBLIC "-//W3C//DTD SVG 1.1//EN" "http://www.w3.org/Graphics/SVG/1.1/DTD/svg11.dtd" [
<!ENTITY fill_color "#FFFFFF">
<!ENTITY stroke_color "#010101">
]>
<svg
   xmlns:dc="http://purl.org/dc/elements/1.1/"
   xmlns:cc="http://creativecommons.org/ns#"
   xmlns:rdf="http://www.w3.org/1999/02/22-rdf-syntax-ns#"
   xmlns:svg="http://www.w3.org/2000/svg"
   xmlns="http://www.w3.org/2000/svg"
   xmlns:sodipodi="http://sodipodi.sourceforge.net/DTD/sodipodi-0.dtd"
   xmlns:inkscape="http://www.inkscape.org/namespaces/inkscape"
   width="55"
   height="55"
   id="svg3061"
   version="1.1"
   inkscape:version="0.48.1 r9760"
   sodipodi:docname="search.svg">
  <defs
     id="defs3075" />
  <g
     transform="matrix(0.83784436,0,0,0.83784436,-44.323001,11.841727)"
     id="g3063">
    <path
       style="fill:none;stroke:&fill_color;;stroke-width:3.5"
       d="m 78.613844,7.5069354 c 0,7.5689996 6.131,13.7039996 13.702,13.7039996 7.562,0 13.693996,-6.135 13.693996,-13.7039996 0,-7.56399942 -6.131996,-13.6979988 -13.693996,-13.6979988 -7.571,0 -13.702,6.13399938 -13.702,13.6979988 z"
       id="path3065"
       inkscape:connector-curvature="0" />
    <line
       style="fill:none;stroke:&fill_color;;stroke-width:3.5"
       y2="29.005939"
       y1="17.222942"
       x2="113.78584"
       x1="102.00484"
       id="line3067" />
  </g>
  <path
     style="fill:&fill_color;;stroke:&fill_color;;stroke-width:3.5;stroke-linecap:round;stroke-linejoin:round;stroke-miterlimit:4"
     d="M 27.075248,48.738777 C 20.23619,39.706706 9.309587,48.39518 3.7939838,48.393869 l 0,-6 C 9.309587,42.39518 20.23619,33.706706 27.075248,42.738777 z"
     id="path3069" />
  <path
     d="m 26.84061,48.738777 c 6.839058,-9.032071 17.765661,-0.343597 23.281264,-0.344908 l 0,-6 c -5.515603,0.0013 -16.442206,-8.687163 -23.281264,0.344908 z"
     style="fill:&fill_color;;stroke:&fill_color;;stroke-width:3.5;stroke-linecap:round;stroke-linejoin:round;stroke-miterlimit:4"
     id="path3071" />
</svg>
